<?xml version="1.0" encoding="UTF-8"?><svg xmlns="http://www.w3.org/2000/svg" viewBox="0 0 287.76 468.42"><defs><style>.d{fill:#8b8b8b;}.e{fill:#333;}.f{fill:#141414;}.g{fill:#383838;}</style></defs><g id="a"/><g id="b"><g id="c"><path class="d" d="M.24,238.67c-.54-.36,0-.59,.13-.82,8.16-13.57,16.34-27.13,24.52-40.7,11.47-19.04,22.94-38.08,34.41-57.11,16.69-27.7,33.39-55.4,50.09-83.1,11.24-18.66,22.48-37.32,33.75-55.96,.22-.37,.2-1.23,1.07-.91,.19,1.28,.18,2.56,.18,3.85,0,55.27,0,110.54,0,165.81,0,.93,.05,1.87-.07,2.79-.02,.15-.07,.3-.14,.44-.71,.86-1.77,1.16-2.72,1.59-8.61,3.91-17.22,7.82-25.83,11.74-8.29,3.77-16.58,7.51-24.87,11.29-7.31,3.33-14.64,6.65-21.95,9.98-8.32,3.79-16.66,7.56-24.99,11.35-7.31,3.33-14.63,6.65-21.95,9.98-6.18,2.82-12.35,5.67-18.58,8.39-1.02,.44-1.94,1.08-3.03,1.38Z"/><path class="e" d="M143.92,173.08c0-48.91,0-97.82,0-146.73,0-8.26,0-16.53,.01-24.79,0-.5-.25-1.07,.25-1.49,11.72,19.44,23.44,38.87,35.16,58.31,30.57,50.72,61.14,101.45,91.71,152.17,5.35,8.88,10.7,17.77,16.05,26.66,.18,.3,.32,.62,.48,.93-.53,.43-1.02,.1-1.49-.12-6.01-2.76-12.04-5.49-18.06-8.22-7.4-3.36-14.79-6.72-22.19-10.09-6.34-2.89-12.69-5.77-19.04-8.66-6.38-2.91-12.78-5.79-19.16-8.7-6.3-2.87-12.61-5.73-18.91-8.6-7.36-3.35-14.71-6.68-22.07-10.03-6.34-2.89-12.71-5.74-19.03-8.68-1.27-.59-2.71-.89-3.73-1.97Z"/><path class="f" d="M143.92,173.08c3.2,1.42,6.4,2.83,9.58,4.27,7.55,3.41,15.09,6.83,22.64,10.26,5.2,2.36,10.4,4.75,15.6,7.11,7.5,3.41,15.01,6.8,22.51,10.21,5.28,2.4,10.55,4.84,15.84,7.24,7.42,3.37,14.85,6.72,22.28,10.09,5.24,2.38,10.48,4.78,15.72,7.18,6.24,2.85,12.49,5.71,18.73,8.55,.23,.11,.51,.11,.77,.16,.56,.84-.38,.74-.65,.9-5.82,3.47-11.66,6.91-17.49,10.36-41.33,24.43-82.66,48.86-124,73.29-.48,.28-.9,.73-1.51,.75-.35-.39-.41-.87-.43-1.37-.02-.44-.01-.89-.01-1.33,0-48.32,0-96.64,0-144.96,0-.91-.2-1.88,.43-2.7h0Z"/><path class="g" d="M143.92,173.08c0,32.63,0,65.26,.01,97.89,0,17.49,0,34.98,0,52.47-2.59-1.15-4.92-2.76-7.35-4.19-42.4-25.04-84.79-50.11-127.18-75.16-3.05-1.8-6.1-3.61-9.15-5.42,.19-.61,.79-.67,1.25-.88,19.49-8.87,38.99-17.74,58.49-26.6,23.49-10.68,46.99-21.36,70.49-32.03,4.48-2.04,8.97-4.05,13.45-6.08Z"/><path class="e" d="M143.96,350.69c9.17-5.4,18.34-10.79,27.5-16.19,38.39-22.67,76.79-45.34,115.18-68.01,.26-.15,.53-.28,.86-.45,.14,.47-.19,.69-.37,.95-27.17,38.27-54.35,76.55-81.52,114.82-20.27,28.54-40.53,57.08-60.8,85.62-.25,.35-.4,.79-.83,1-.47-.65-.48-1.41-.48-2.17,0-37.85,0-75.7,0-113.55,0-.69-.13-1.44,.47-2.01Z"/><path class="d" d="M143.96,350.69c-.01,.53-.03,1.06-.03,1.6,0,38.18,0,76.36,0,114.53,0,.53,.02,1.06,.04,1.6-1.89-2-3.29-4.36-4.87-6.59-22.44-31.59-44.85-63.21-67.27-94.81C48,333.46,24.18,299.91,.36,266.36c-.07-.1-.11-.22-.31-.59,2.77,1.63,5.31,3.12,7.84,4.62,30.44,17.99,60.89,35.99,91.33,53.98,14.32,8.46,28.65,16.92,42.98,25.38,.57,.34,1.17,.64,1.75,.95Z"/></g></g></svg>